<svg width="160" height="33" viewBox="0 0 160 33" fill="none" xmlns="http://www.w3.org/2000/svg">
<g clip-path="url(#clip0_3588_173)">
<path d="M159.716 24.7494V28.7089H156.395C152.85 28.5975 150.957 26.6836 150.957 23.0887V14.0456H148.638V10.5722H150.957V6.68359H155.858V10.5317H159.605V13.995H155.858V22.6026C155.858 23.7671 156.091 24.6988 157.883 24.6988L159.716 24.7494Z" fill="white"/>
<path d="M129.104 19.6762V19.4129C129.051 18.2482 129.228 17.0845 129.626 15.9885C130.023 14.8925 130.633 13.8857 131.421 13.0258C132.208 12.166 133.158 11.47 134.214 10.9777C135.271 10.4855 136.415 10.2067 137.58 10.1572C137.813 10.1572 138.056 10.1572 138.289 10.1572C142.917 10.1572 146.977 12.8509 146.977 19.2711V20.6382H134.117C134.248 23.5952 135.848 25.2661 138.542 25.2661C140.861 25.2661 141.944 24.2534 142.258 22.7749H146.886C146.319 26.6332 143.241 28.78 138.37 28.78C133.023 28.7395 129.104 25.3572 129.104 19.6762ZM142.157 17.5395C141.985 14.8458 140.628 13.5496 138.268 13.5496C135.909 13.5496 134.552 15.0079 134.218 17.5395H142.157Z" fill="white"/>
<path d="M109.093 19.6762V19.4129C109.04 18.2499 109.217 17.0877 109.613 15.993C110.009 14.8982 110.618 13.8923 111.403 13.0327C112.188 12.1732 113.135 11.4768 114.19 10.9834C115.244 10.49 116.386 10.2092 117.549 10.1572C117.782 10.1572 118.025 10.1572 118.258 10.1572C122.886 10.1572 126.956 12.8509 126.956 19.2711V20.6382H114.106C114.237 23.5952 115.837 25.2661 118.531 25.2661C120.85 25.2661 121.934 24.2534 122.248 22.7749H126.875C126.298 26.6332 123.22 28.78 118.349 28.78C113.012 28.7395 109.093 25.3572 109.093 19.6762ZM122.146 17.5395C121.974 14.8458 120.617 13.5496 118.258 13.5496C115.898 13.5496 114.582 15.0484 114.207 17.5294L122.146 17.5395Z" fill="white"/>
<path d="M81.0127 10.5312H86.1975L89.3671 22.5414L92.8405 10.5312H96.8912L100.03 22.5414L103.372 10.5312H108.122L102.491 28.3743H97.6304L94.5924 17.1743L91.3418 28.3743H86.4203L81.0127 10.5312Z" fill="white"/>
<path d="M64.5371 22.7643H69.165C69.3776 24.3744 70.1776 25.296 72.3042 25.296C74.208 25.296 75.089 24.577 75.089 23.3517C75.089 22.1263 74.0764 21.6099 71.484 21.2453C66.7346 20.5263 64.9017 19.1592 64.9017 15.6757C64.9017 11.9592 68.3042 10.1162 71.9903 10.1162C75.9498 10.1162 78.9371 11.5542 79.3624 15.6555H74.7953C74.7662 15.3384 74.6745 15.0302 74.5256 14.7488C74.3767 14.4674 74.1735 14.2183 73.9277 14.0158C73.682 13.8134 73.3985 13.6617 73.0938 13.5694C72.7891 13.4771 72.4691 13.4461 72.1523 13.4782H72.0004C70.4004 13.4782 69.4688 14.2276 69.4688 15.3213C69.4688 16.4149 70.3295 16.8909 72.9422 17.2656C77.3776 17.9339 79.8586 19.058 79.8586 22.8757C79.8586 26.6934 77.0536 28.739 72.3548 28.739C67.6561 28.739 64.6688 26.6225 64.5371 22.7643Z" fill="white"/>
<path d="M44.8711 10.5316H49.7724V13.3569C50.3248 12.3199 51.1633 11.4633 52.1884 10.8888C53.2134 10.3144 54.3817 10.0463 55.5546 10.1164C59.0281 10.1164 61.5496 12.2329 61.5496 17.0632V28.4151H56.7091V17.7721C56.7091 15.3518 55.7673 14.1974 53.58 14.1974C53.1176 14.1572 52.6519 14.2086 52.2095 14.3488C51.7672 14.489 51.3568 14.7152 51.0021 15.0145C50.6474 15.3137 50.3553 15.68 50.1425 16.0924C49.9297 16.5048 49.8005 16.9552 49.7622 17.4177C49.7369 17.633 49.7369 17.8505 49.7622 18.0658V28.3746H44.8711V10.5316Z" fill="white"/>
<path d="M35.4128 6.046C35.395 5.55732 35.5226 5.07436 35.7795 4.65827C36.0364 4.24217 36.4109 3.91165 36.8558 3.70855C37.3006 3.50545 37.7957 3.43891 38.2783 3.51735C38.761 3.59578 39.2096 3.81567 39.5672 4.14917C39.9248 4.48267 40.1754 4.91479 40.2873 5.39081C40.3992 5.86683 40.3674 6.36535 40.1958 6.82326C40.0242 7.28116 39.7206 7.67786 39.3234 7.96312C38.9263 8.24839 38.4534 8.40939 37.9647 8.42574H37.8735C37.5702 8.44494 37.2661 8.40406 36.9786 8.30545C36.6911 8.20684 36.4259 8.05243 36.1982 7.85109C35.9705 7.64976 35.7848 7.40544 35.6518 7.13217C35.5187 6.8589 35.4409 6.56205 35.4229 6.25865C35.4145 6.1881 35.4111 6.11703 35.4128 6.046ZM35.4128 10.5321H40.3647V28.3751H35.433L35.4128 10.5321Z" fill="white"/>
<path d="M16.749 3.99023H32.4047V8.31428H22.2781V14.7649H30.2984V18.9269H22.268V28.375H16.749V3.99023Z" fill="white"/>
<path d="M7.30127 11.9696C7.30127 13.4987 7.30127 15.362 5.19494 16.1215C7.3519 16.8608 7.30127 18.4304 7.30127 20.0709V26.1468C7.30127 27.3013 7.76709 28 8.59747 28.1722C8.77993 28.2337 8.97216 28.2612 9.16456 28.2532H11.1899V32.3038H7.8481C4.28355 32.3038 2.31899 30.2785 2.31899 26.5215V19.3316C2.29371 18.9625 2.13095 18.6163 1.86286 18.3613C1.59476 18.1064 1.24081 17.9612 0.870886 17.9544H0V14.4H0.870886C1.24819 14.395 1.60909 14.245 1.87872 13.981C2.14835 13.717 2.30601 13.3594 2.31899 12.9823V5.69114C2.31899 1.99494 4.24304 0 7.8481 0H11.2203V3.98987H9.19494C9.00231 3.99043 8.81095 4.02118 8.62785 4.08101C7.79747 4.29367 7.33165 4.98228 7.33165 6.10633L7.30127 11.9696Z" fill="white"/>
</g>
<defs>
<clipPath id="clip0_3588_173">
<rect width="160" height="32.4051" fill="white"/>
</clipPath>
</defs>
</svg>
