<svg width="139" height="28" viewBox="0 0 139 28" fill="none" xmlns="http://www.w3.org/2000/svg">
<path d="M10.784 8.88L6.608 20H4.496L0.304 8.88H2.256L5.552 18.128L8.864 8.88H10.784ZM13.2374 10.016C12.9067 10.016 12.6294 9.904 12.4054 9.68C12.1814 9.456 12.0694 9.17867 12.0694 8.848C12.0694 8.51733 12.1814 8.24 12.4054 8.016C12.6294 7.792 12.9067 7.68 13.2374 7.68C13.5574 7.68 13.8294 7.792 14.0534 8.016C14.2774 8.24 14.3894 8.51733 14.3894 8.848C14.3894 9.17867 14.2774 9.456 14.0534 9.68C13.8294 9.904 13.5574 10.016 13.2374 10.016ZM14.1334 11.184V20H12.3094V11.184H14.1334ZM24.6081 15.376C24.6081 15.7067 24.5868 16.0053 24.5441 16.272H17.8081C17.8615 16.976 18.1228 17.5413 18.5921 17.968C19.0615 18.3947 19.6375 18.608 20.3201 18.608C21.3015 18.608 21.9948 18.1973 22.4001 17.376H24.3681C24.1015 18.1867 23.6161 18.8533 22.9121 19.376C22.2188 19.888 21.3548 20.144 20.3201 20.144C19.4775 20.144 18.7201 19.9573 18.0481 19.584C17.3868 19.2 16.8641 18.6667 16.4801 17.984C16.1068 17.2907 15.9201 16.4907 15.9201 15.584C15.9201 14.6773 16.1015 13.8827 16.4641 13.2C16.8375 12.5067 17.3548 11.9733 18.0161 11.6C18.6881 11.2267 19.4561 11.04 20.3201 11.04C21.1521 11.04 21.8935 11.2213 22.5441 11.584C23.1948 11.9467 23.7015 12.4587 24.0641 13.12C24.4268 13.7707 24.6081 14.5227 24.6081 15.376ZM22.7041 14.8C22.6935 14.128 22.4535 13.5893 21.9841 13.184C21.5148 12.7787 20.9335 12.576 20.2401 12.576C19.6108 12.576 19.0721 12.7787 18.6241 13.184C18.1761 13.5787 17.9095 14.1173 17.8241 14.8H22.7041ZM38.2431 11.184L35.5071 20H33.5871L31.8111 13.488L30.0351 20H28.1151L25.3631 11.184H27.2191L29.0591 18.272L30.9311 11.184H32.8351L34.6271 18.24L36.4511 11.184H38.2431ZM51.5385 12.192C51.5385 12.7573 51.4052 13.2907 51.1385 13.792C50.8718 14.2933 50.4452 14.704 49.8585 15.024C49.2718 15.3333 48.5198 15.488 47.6025 15.488H45.5865V20H43.7625V8.88H47.6025C48.4558 8.88 49.1758 9.02933 49.7625 9.328C50.3598 9.616 50.8025 10.0107 51.0905 10.512C51.3892 11.0133 51.5385 11.5733 51.5385 12.192ZM47.6025 14C48.2958 14 48.8132 13.8453 49.1545 13.536C49.4958 13.216 49.6665 12.768 49.6665 12.192C49.6665 10.976 48.9785 10.368 47.6025 10.368H45.5865V14H47.6025ZM55.1021 12.464C55.3688 12.016 55.7208 11.6693 56.1581 11.424C56.6061 11.168 57.1341 11.04 57.7421 11.04V12.928H57.2781C56.5635 12.928 56.0195 13.1093 55.6461 13.472C55.2835 13.8347 55.1021 14.464 55.1021 15.36V20H53.2781V11.184H55.1021V12.464ZM60.3468 10.016C60.0161 10.016 59.7388 9.904 59.5148 9.68C59.2908 9.456 59.1788 9.17867 59.1788 8.848C59.1788 8.51733 59.2908 8.24 59.5148 8.016C59.7388 7.792 60.0161 7.68 60.3468 7.68C60.6668 7.68 60.9388 7.792 61.1628 8.016C61.3868 8.24 61.4988 8.51733 61.4988 8.848C61.4988 9.17867 61.3868 9.456 61.1628 9.68C60.9388 9.904 60.6668 10.016 60.3468 10.016ZM61.2428 11.184V20H59.4188V11.184H61.2428ZM63.0295 15.584C63.0295 14.6773 63.2108 13.8827 63.5735 13.2C63.9468 12.5067 64.4588 11.9733 65.1095 11.6C65.7602 11.2267 66.5068 11.04 67.3495 11.04C68.4162 11.04 69.2962 11.296 69.9895 11.808C70.6935 12.3093 71.1682 13.0293 71.4135 13.968H69.4455C69.2855 13.5307 69.0295 13.1893 68.6775 12.944C68.3255 12.6987 67.8828 12.576 67.3495 12.576C66.6028 12.576 66.0055 12.8427 65.5575 13.376C65.1202 13.8987 64.9015 14.6347 64.9015 15.584C64.9015 16.5333 65.1202 17.2747 65.5575 17.808C66.0055 18.3413 66.6028 18.608 67.3495 18.608C68.4055 18.608 69.1042 18.144 69.4455 17.216H71.4135C71.1575 18.112 70.6775 18.8267 69.9735 19.36C69.2695 19.8827 68.3948 20.144 67.3495 20.144C66.5068 20.144 65.7602 19.9573 65.1095 19.584C64.4588 19.2 63.9468 18.6667 63.5735 17.984C63.2108 17.2907 63.0295 16.4907 63.0295 15.584ZM74.1593 10.016C73.8286 10.016 73.5513 9.904 73.3273 9.68C73.1033 9.456 72.9913 9.17867 72.9913 8.848C72.9913 8.51733 73.1033 8.24 73.3273 8.016C73.5513 7.792 73.8286 7.68 74.1593 7.68C74.4793 7.68 74.7513 7.792 74.9753 8.016C75.1993 8.24 75.3113 8.51733 75.3113 8.848C75.3113 9.17867 75.1993 9.456 74.9753 9.68C74.7513 9.904 74.4793 10.016 74.1593 10.016ZM75.0553 11.184V20H73.2313V11.184H75.0553ZM81.898 11.04C82.5913 11.04 83.21 11.184 83.754 11.472C84.3087 11.76 84.7407 12.1867 85.05 12.752C85.3593 13.3173 85.514 14 85.514 14.8V20H83.706V15.072C83.706 14.2827 83.5087 13.68 83.114 13.264C82.7193 12.8373 82.1807 12.624 81.498 12.624C80.8153 12.624 80.2713 12.8373 79.866 13.264C79.4713 13.68 79.274 14.2827 79.274 15.072V20H77.45V11.184H79.274V12.192C79.5727 11.8293 79.9513 11.5467 80.41 11.344C80.8793 11.1413 81.3753 11.04 81.898 11.04ZM91.3926 11.04C92.0753 11.04 92.678 11.1787 93.2006 11.456C93.734 11.7227 94.15 12.0587 94.4486 12.464V11.184H96.2886V20.144C96.2886 20.9547 96.118 21.6747 95.7766 22.304C95.4353 22.944 94.9393 23.4453 94.2886 23.808C93.6486 24.1707 92.8806 24.352 91.9846 24.352C90.79 24.352 89.798 24.0693 89.0086 23.504C88.2193 22.9493 87.7713 22.192 87.6646 21.232H89.4726C89.6113 21.6907 89.9046 22.0587 90.3526 22.336C90.8113 22.624 91.3553 22.768 91.9846 22.768C92.7206 22.768 93.3126 22.544 93.7606 22.096C94.2193 21.648 94.4486 20.9973 94.4486 20.144V18.672C94.1393 19.088 93.718 19.44 93.1846 19.728C92.662 20.0053 92.0646 20.144 91.3926 20.144C90.6246 20.144 89.9206 19.952 89.2806 19.568C88.6513 19.1733 88.15 18.6293 87.7766 17.936C87.414 17.232 87.2326 16.4373 87.2326 15.552C87.2326 14.6667 87.414 13.8827 87.7766 13.2C88.15 12.5173 88.6513 11.9893 89.2806 11.616C89.9206 11.232 90.6246 11.04 91.3926 11.04ZM94.4486 15.584C94.4486 14.976 94.3206 14.448 94.0646 14C93.8193 13.552 93.494 13.2107 93.0886 12.976C92.6833 12.7413 92.246 12.624 91.7766 12.624C91.3073 12.624 90.87 12.7413 90.4646 12.976C90.0593 13.2 89.7286 13.536 89.4726 13.984C89.2273 14.4213 89.1046 14.944 89.1046 15.552C89.1046 16.16 89.2273 16.6933 89.4726 17.152C89.7286 17.6107 90.0593 17.9627 90.4646 18.208C90.8806 18.4427 91.318 18.56 91.7766 18.56C92.246 18.56 92.6833 18.4427 93.0886 18.208C93.494 17.9733 93.8193 17.632 94.0646 17.184C94.3206 16.7253 94.4486 16.192 94.4486 15.584Z" fill="white"/>
<path d="M138.53 14.5303C138.823 14.2374 138.823 13.7626 138.53 13.4697L133.757 8.6967C133.464 8.40381 132.99 8.40381 132.697 8.6967C132.404 8.98959 132.404 9.46447 132.697 9.75736L136.939 14L132.697 18.2426C132.404 18.5355 132.404 19.0104 132.697 19.3033C132.99 19.5962 133.464 19.5962 133.757 19.3033L138.53 14.5303ZM114 14.75H138V13.25H114V14.75Z" fill="#F4F6FC"/>
</svg>
